<svg xmlns="http://www.w3.org/2000/svg" viewBox="0 0 512 512" role="img" aria-label="CondoJob Educacional">
  <defs>
    <linearGradient id="bg" x1="64" y1="40" x2="448" y2="472" gradientUnits="userSpaceOnUse">
      <stop offset="0" stop-color="#67E8F9"/>
      <stop offset="0.48" stop-color="#818CF8"/>
      <stop offset="1" stop-color="#C084FC"/>
    </linearGradient>
    <linearGradient id="panel" x1="116" y1="124" x2="396" y2="388" gradientUnits="userSpaceOnUse">
      <stop offset="0" stop-color="#111827"/>
      <stop offset="1" stop-color="#050816"/>
    </linearGradient>
    <filter id="shadow" x="-20%" y="-20%" width="140%" height="140%">
      <feDropShadow dx="0" dy="24" stdDeviation="22" flood-color="#030712" flood-opacity="0.42"/>
    </filter>
  </defs>
  <rect width="512" height="512" rx="112" fill="#070B14"/>
  <rect x="26" y="26" width="460" height="460" rx="96" fill="url(#bg)"/>
  <path d="M86 370V166c0-28 22-50 50-50h240c28 0 50 22 50 50v154c0 28-22 50-50 50h-92l-58 54v-54H136c-28 0-50-22-50-50Z" fill="url(#panel)" filter="url(#shadow)"/>
  <path d="M136 166c0-10 8-18 18-18h204c10 0 18 8 18 18v24H136v-24Z" fill="#1E293B"/>
  <circle cx="162" cy="169" r="7" fill="#67E8F9"/>
  <circle cx="184" cy="169" r="7" fill="#818CF8"/>
  <circle cx="206" cy="169" r="7" fill="#C084FC"/>
  <text x="256" y="288" text-anchor="middle" font-family="Inter, Arial, sans-serif" font-size="118" font-weight="900" fill="#F8FAFC" letter-spacing="-10">CJ</text>
  <text x="256" y="334" text-anchor="middle" font-family="Inter, Arial, sans-serif" font-size="32" font-weight="800" fill="#A5F3FC" letter-spacing="2">EAD</text>
</svg>
